<svg id="Ebene_1" data-name="Ebene 1" xmlns="http://www.w3.org/2000/svg" viewBox="0 0 68.21 75.8"><path id="Pfad_241" data-name="Pfad 241" d="M21.24,58.38H47.77V66H21.24Zm0-15.16h37.9V50.8H21.24Zm0-15.15h37.9v7.57H21.24ZM66.72,12.91H50.88a11.32,11.32,0,0,0-21.38,0H13.66a6.48,6.48,0,0,0-1.52.15,7.64,7.64,0,0,0-5.45,4.51,7.31,7.31,0,0,0-.61,2.92V73.54a7.72,7.72,0,0,0,.61,3,7.94,7.94,0,0,0,1.63,2.42A7.54,7.54,0,0,0,12.15,81a10.84,10.84,0,0,0,1.51.11H66.72a7.59,7.59,0,0,0,7.57-7.58V20.49A7.59,7.59,0,0,0,66.72,12.91ZM40.19,12a2.84,2.84,0,1,1-2.84,2.84h0A2.86,2.86,0,0,1,40.19,12ZM66.72,73.54H13.66V20.49H66.72Z" transform="translate(-6.08 -5.32)"/></svg>