<svg xmlns="http://www.w3.org/2000/svg" viewBox="0 0 193.07 211.99"><title>1Zeichenfläche 50</title><g id="Ebene_1" data-name="Ebene 1"><path d="M96.49,0C55.6,0,22.35,34.17,22.35,76.17A78.06,78.06,0,0,0,31.07,112l.28.51,2.09,3.6,16-27.66A52.56,52.56,0,0,1,48,76.17c0-27.88,21.77-50.56,48.53-50.56S145,48.29,145,76.17a52.27,52.27,0,0,1-5.69,23.76L96.49,173.84l-11-19-15,25.22L85.4,205.8a12.81,12.81,0,0,0,22.17,0l54.07-93.29a5.21,5.21,0,0,0,.28-.52,77.88,77.88,0,0,0,8.71-35.82C170.63,34.17,137.37,0,96.49,0Z"/><path d="M107.89,115.44l14.54-25.15-5.11-8.8a24,24,0,0,0-41.57,0L0,212H29.14L96.54,95.88Z"/><polygon points="159.4 153.97 144.66 178.8 163.93 211.99 193.07 211.99 159.4 153.97"/></g></svg>