<?xml version="1.0" encoding="utf-8"?>
<!-- Generator: Adobe Illustrator 25.1.0, SVG Export Plug-In . SVG Version: 6.00 Build 0)  -->
<svg version="1.1" id="Ebene_1" xmlns="http://www.w3.org/2000/svg" x="0px" y="0px" viewBox="0 0 24 24" style="enable-background:new 0 0 24 24;" xml:space="preserve">
<path style="fill:none;" d="M0,0h24v24H0V0z"/>
<path d="M9,11.5H7v2h2V11.5z M13,11.5h-2v2h2V11.5z M17,11.5h-2v2h2V11.5z M9,15.5H7v2h2V15.5z M13,15.5h-2v2h2V15.5z M17,15.5h-2v2
	h2V15.5z M19,4h-1V2h-2v2H8V2H6v2H5C3.9,4,3,4.9,3,6l0,14c0,1.1,0.9,2,2,2h14c1.1,0,2-0.9,2-2V6C21,4.9,20.1,4,19,4z M19,20H5V9h14
	V20z"/>
</svg>
