<svg xmlns="http://www.w3.org/2000/svg" viewBox="0 0 1210.39 250.68"><defs></defs><title>1Zeichenfläche 51 Kopie</title><g id="Ebene_1" data-name="Ebene 1"><path style="fill:#fff" d="M231.11,198.81v51.87H208.6v-114c0-8.3,0-16.7-.2-25h22a145.72,145.72,0,0,1,.69,16.1c5.83-9.88,17.16-18.87,37.69-18.87,26.81,0,47,22,47,51.26,0,33.48-23.39,54.9-50.4,54.9C245.73,215.05,236.37,206.73,231.11,198.81ZM292.6,161.2c0-17-9.77-34-30.69-34-22.06,0-31.39,15.23-31.39,35.09,0,20,10.39,34.18,31,34.18S292.6,180.41,292.6,161.2Z"/><path style="fill:#fff" d="M362,198.81v51.87H339.44v-114c0-8.3,0-16.7-.19-25h22a145.72,145.72,0,0,1,.69,16.1c5.83-9.88,17.16-18.87,37.69-18.87,26.81,0,47,22,47,51.26,0,33.48-23.39,54.9-50.39,54.9C376.58,215.05,367.21,206.73,362,198.81Zm61.49-37.61c0-17-9.77-34-30.69-34-22.05,0-31.39,15.23-31.39,35.09,0,20,10.39,34.18,31,34.18S423.44,180.41,423.44,161.2Z"/><path style="fill:#fff" d="M479.89,111.66c10.45,27.51,28.65,69.07,32.31,80.35h.29c3-9.69,9.82-27.34,31.8-80.35h23l-39.69,92.12c-6.07,14.08-26,14.1-32.12,0l-39.92-92.15Z"/><path style="fill:#fff" d="M598.58,167.29c1,17.32,12.84,30.18,31.76,30.18,14.68,0,22.52-5.66,27.44-14.42h22.51c-5.6,15.77-20.07,32-50.78,32-37.48,0-53.45-26.62-53.45-52.83,0-29.81,19.9-53.33,53.05-53.33,38.46,0,52.57,27.7,52.57,52.7,0,1.94,0,3.39-.09,5.7Zm59.89-15.12c-.8-10.76-6.53-26.45-29.47-26.45-19.53,0-28.51,11.83-30,26.45Z"/><path style="fill:#fff" d="M705.2,137c0-8.49,0-18-.2-25.38h21.92c.4,3.29.69,11,.78,17.05,4.43-8.91,14.57-19.82,35.59-19.82,23.94,0,39.08,14.78,39.08,41.91v61.48H779.68V154.67c0-15.14-5.82-27.43-23.3-27.43-19.24,0-28.58,14.39-28.58,36.25v48.79H705.2Z"/><path style="fill:#fff" d="M818.93,111.66h19.45V80H861v31.62h25.41v17.2H861V180.4c0,10.7,2.62,15.49,13.24,15.49a43.84,43.84,0,0,0,9.53-.8v16.13c-4.79,1.58-10.62,1.95-16.86,1.95-21.94,0-28.51-9.7-28.51-29.46V128.86H818.93Z"/><path style="fill:#fff" d="M1000.33,183c0,9.78-.09,19.55.11,29.33H978.62c-.4-2.77-.6-9.21-.7-15.55-5,10.43-13.69,18.32-35.45,18.32-21.25,0-37.74-11.82-37.74-41.24V111.66h22.51v58.19c0,14.7,5.68,26.74,22.39,26.74,19.94,0,28.2-11.62,28.2-39.16V111.66h22.5Z"/><path style="fill:#fff" d="M1031,139c0-9.08,0-18.27-.2-27.35h21.92c.39,3.13.78,13.87.78,21.94,6.27-14.81,20.2-24.89,40.18-24.61v21.12c-23-.29-40.18,12.27-40.18,41.64v40.53H1031Z"/><path style="fill:#fff" d="M1127.29,167.29c1,17.32,12.84,30.18,31.76,30.18,14.68,0,22.52-5.66,27.44-14.42H1209c-5.6,15.77-20.07,32-50.78,32-37.48,0-53.44-26.62-53.44-52.83,0-29.81,19.9-53.33,53-53.33,38.46,0,52.57,27.7,52.57,52.7,0,1.94,0,3.39-.09,5.7Zm59.89-15.12c-.8-10.76-6.53-26.45-29.47-26.45-19.53,0-28.51,11.83-30,26.45Z"/><path style="fill:#fff" d="M96.52,0C55.63,0,22.35,34.18,22.35,76.2a78.08,78.08,0,0,0,8.73,35.88l.29.52,2.08,3.6,16-27.68A52.5,52.5,0,0,1,48,76.2c0-27.89,21.78-50.58,48.54-50.58s48.55,22.69,48.55,50.58A52.28,52.28,0,0,1,139.38,100L96.52,173.91l-11-19-15,25.23,14.9,25.71a12.81,12.81,0,0,0,22.17,0l54.1-93.33c.1-.16.19-.34.28-.51A78,78,0,0,0,170.7,76.2C170.7,34.18,137.42,0,96.52,0Z"/><path style="fill:#fff" d="M107.93,115.49l14.55-25.17-5.11-8.8a24,24,0,0,0-41.59,0L0,212.08H29.15L96.57,95.92Z"/><polygon style="fill:#fff" points="159.46 154.04 144.72 178.87 164 212.08 193.15 212.08 159.46 154.04"/></g></svg>