<?xml version="1.0" encoding="utf-8"?>
<!-- Generator: Adobe Illustrator 25.1.0, SVG Export Plug-In . SVG Version: 6.00 Build 0)  -->
<svg version="1.1" id="Ebene_1" xmlns="http://www.w3.org/2000/svg" x="0px" y="0px" viewBox="0 0 24 24" style="enable-background:new 0 0 24 24;" xml:space="preserve">
<path style="fill: none;" d="M0.2,1.3h23.4v23.4H0.2V1.3z"/>
<g>
	<path d="M11.6,5.9c-0.1,0-0.2,0.1-0.2,0.2c0,0.2,0.4,0.2,0.4,0C11.8,6,11.7,5.9,11.6,5.9z"/>
	<path d="M21,5.2l-2.3,1c0,0.5-0.1,1.1-0.2,1.7l2.3-1.1v12.3l-5.7,2.6l-7-2.9l-5.2,2.8V8.3l1.7-1.1C4.6,6.8,4.5,6.5,4.5,6.1
		c0-0.2,0-0.4,0-0.7L2.2,7C1.8,7.2,1.4,7.6,1.4,8.1v14c0,0.7,0.6,1.2,1.3,1.2l0.3,0l5.2-2.8l6.9,2.9l6.3-2.9
		c0.5-0.2,0.9-0.6,0.9-1.1V6.4C22.3,5.7,21.8,5.2,21,5.2z"/>
</g>
<g>
	<path d="M11.6,16.3c-0.2,0-0.4-0.1-0.6-0.2c-0.2-0.2-5.3-5.9-5.3-10c0-3.2,2.6-5.8,5.8-5.8c3.2,0,5.8,2.6,5.8,5.8
		c0,4.1-5.1,9.7-5.3,10C12,16.2,11.8,16.3,11.6,16.3z M11.6,1.8c-2.4,0-4.3,1.9-4.3,4.3c0,2.6,2.8,6.4,4.3,8.3
		c1.3-1.5,4.3-5.5,4.3-8.3C16,3.7,14,1.8,11.6,1.8z"/>
</g>
<circle cx="11.6" cy="6" r="1.8"/>
</svg>
