<?xml version="1.0" encoding="utf-8"?>
<!-- Generator: Adobe Illustrator 25.2.1, SVG Export Plug-In . SVG Version: 6.00 Build 0)  -->
<svg version="1.1" id="Ebene_1" xmlns="http://www.w3.org/2000/svg" xmlns:xlink="http://www.w3.org/1999/xlink" x="0px" y="0px"
	 viewBox="0 0 16.24 15.14" style="enable-background:new 0 0 16.24 15.14;" xml:space="preserve">
<path style="fill:none;stroke:#000000;stroke-linecap:round;" d="M1.71,10.75c3.73-0.15,6.13-2.31,6.13-2.31c0.89-0.7,1.45-1.78,1.45-3c0-2.11-1.55-3.82-3.66-3.82
	c-2.5,0-4.28,2.03-4.28,4.53c0,0.79,0.21,1.76,0.99,2.92c0,0,1.7,2.6,5.73,4.77l0,0l0,0c4.03-2.17,5.73-4.77,5.73-4.77
	c0.78-1.17,0.99-2.14,0.99-2.92c0-2.5-1.78-4.53-4.28-4.53c-2.11,0-3.66,1.71-3.66,3.82c0,1.22,0.57,2.3,1.45,3
	c0,0,2.4,2.16,6.13,2.31"/>
</svg>
