<svg id="Ebene_1" data-name="Ebene 1" xmlns="http://www.w3.org/2000/svg" viewBox="0 0 74 74"><path id="Pfad_250" data-name="Pfad 250" d="M68.08,13.83V71.38H10.52V13.83H68.08m0-8.22H10.52A8.2,8.2,0,0,0,2.3,13.82h0V71.38a8.23,8.23,0,0,0,8.22,8.23H68.08a8.25,8.25,0,0,0,8.22-8.23V13.83A8.23,8.23,0,0,0,68.08,5.61Zm-28.78,37A12.34,12.34,0,1,1,51.64,30.27,12.34,12.34,0,0,1,39.3,42.61Zm0-16.45a4.11,4.11,0,1,0,4.11,4.11h0A4.12,4.12,0,0,0,39.3,26.16ZM64,67.27H14.64V61C14.64,50.71,31,46.26,39.3,46.26S64,50.71,64,61ZM24.13,59.05H54.47c-2.83-2.3-9.78-4.6-15.17-4.6S26.93,56.75,24.13,59.05Z" transform="translate(-2.3 -5.61)"/></svg>