<?xml version="1.0" encoding="utf-8"?>
<!-- Generator: Adobe Illustrator 25.2.0, SVG Export Plug-In . SVG Version: 6.00 Build 0)  -->
<svg version="1.1" id="Ebene_1" xmlns="http://www.w3.org/2000/svg" x="0px" y="0px" viewBox="0 0 91.32 91.32" style="enable-background:new 0 0 91.32 91.32;" xml:space="preserve">
<g>
	<ellipse cx="59.34" cy="36.61" rx="6.5" ry="6"/>
	<circle cx="31.84" cy="36.61" r="6"/>
	<path d="M45.43,54.41c-9.14,0-17.34,5.61-20.65,14.12h6.74c4.4-7.69,14.2-10.35,21.88-5.95c2.48,1.42,4.53,3.47,5.95,5.95h6.74
		C62.77,60.02,54.57,54.41,45.43,54.41z"/>
	<path d="M45.47,6.01c-0.02,0-0.05,0-0.08,0C23.12,6.03,5.08,24.11,5.1,46.38c0.02,22.28,18.09,40.32,40.37,40.3
		c22.26-0.02,40.3-18.07,40.3-40.34C85.78,24.08,67.74,6.02,45.47,6.01z M45.44,78.61C45.44,78.61,45.44,78.61,45.44,78.61
		c-17.83,0-32.28-14.44-32.28-32.26c0-17.82,14.44-32.27,32.26-32.28c17.82,0,32.27,14.44,32.28,32.26c0,0,0,0.01,0,0.01
		C77.7,64.16,63.26,78.61,45.44,78.61z"/>
</g>
</svg>
