<svg xmlns="http://www.w3.org/2000/svg" width="113.484" height="112.918" viewBox="0 0 113.484 112.918">
  <g id="Gruppe_655" data-name="Gruppe 655" transform="translate(-3699.846 -1585.142)">
    <path id="Differenzmenge_12" data-name="Differenzmenge 12" d="M51.071,112.918h0A56.679,56.679,0,0,1,0,56.459,56.042,56.042,0,0,1,5.221,32.712,56.709,56.709,0,0,1,11.3,22.547,57.3,57.3,0,0,1,19.293,13.9H11.165V2.553H39.72V31H28.371v-9.89a45.3,45.3,0,0,0,22.7,80.347v11.46Zm51.1-2.554H73.765V83.211H85.113v8.6a45.3,45.3,0,0,0-22.7-80.347V0a56.679,56.679,0,0,1,51.068,56.459,56.042,56.042,0,0,1-5.221,23.747,56.709,56.709,0,0,1-6.079,10.165,57.3,57.3,0,0,1-7.994,8.644h7.983v11.347Z" transform="translate(3699.846 1585.142)" fill="#0071b8"/>
    <path id="Pfad_480" data-name="Pfad 480" d="M41.958,42.335A12.075,12.075,0,1,0,29.883,30.26,12.093,12.093,0,0,0,41.958,42.335Zm24.08,17.992c0-8.05-16.1-12.075-24.149-12.075S17.74,52.277,17.74,60.327v4.025h48.3Z" transform="translate(3714.699 1596.809)" fill="#0071b8"/>
  </g>
</svg>
