<?xml version="1.0" encoding="utf-8"?>
<!-- Generator: Adobe Illustrator 25.2.0, SVG Export Plug-In . SVG Version: 6.00 Build 0)  -->
<svg version="1.1" id="Ebene_1" xmlns="http://www.w3.org/2000/svg" x="0px" y="0px" viewBox="0 0 91.32 91.32" style="enable-background:new 0 0 91.32 91.32;" xml:space="preserve">
<path id="Pfad_469" d="M41.42,58.39h8.03v8.03h-8.03V58.39z M41.42,26.28h8.03v24.08h-8.03V26.28z M45.39,6.22
	C23.23,6.24,5.28,24.22,5.3,46.39C5.33,68.55,23.31,86.5,45.48,86.48c22.15-0.02,40.09-17.98,40.09-40.13
	C85.58,24.19,67.63,6.23,45.47,6.22C45.45,6.22,45.42,6.22,45.39,6.22z M45.43,78.45c-17.73,0-32.1-14.37-32.1-32.11
	s14.37-32.1,32.11-32.1c17.73,0,32.1,14.37,32.1,32.1c0,17.73-14.37,32.1-32.09,32.11C45.44,78.45,45.44,78.45,45.43,78.45z"/>
</svg>
